<svg xmlns="http://www.w3.org/2000/svg" width="780" height="780" viewBox="0 0 780 780">
  <g id="square-logo" transform="translate(-466 -452)">
    <rect id="Rectangle_9" data-name="Rectangle 9" width="780" height="780" transform="translate(466 452)" fill="#fff"/>
    <g id="Logo" transform="translate(475 569.443)">
      <path id="Union_1" data-name="Union 1" d="M349.763,519.307q-1.788,0-3.555-.049v.049l-.1-.052q-44.776-1.27-77.709-33.875-34.28-33.927-34.274-81.7V307.829l-3.555-19.1H114.939q-47.075,0-81.012-34.274T0,173.109V115.634q0-47.09,33.927-81.36T114.939,0H346.207V.047Q347.974,0,349.763,0H465.4Q574.1,0,580.336,115.634H522.861q-6.926-58.17-57.465-58.159H407.227q-23.538,0-40.506,16.958t-16.958,41.2V403.683q0,24.227,16.958,41.191t40.506,16.969q55.4-2.774,58.169-58.159V288.733H407.227V230.574H580.336V403.683q0,58.154-36.7,86.9T465.4,519.307ZM131.908,74.433q-16.964,16.964-16.969,41.2v57.475q0,23.538,16.969,40.506t41.2,16.958h57.465V57.475H173.109Q148.866,57.475,131.908,74.433Z" transform="translate(90.437 17.25)" fill="#202e43" stroke="rgba(0,0,0,0)" stroke-width="1"/>
    </g>
  </g>
</svg>
